<svg xmlns="http://www.w3.org/2000/svg" id="qr-reactcontent" height="360" width="360" style="background: rgb(233, 234, 235);"><rect x="42.705882352941174" y="41.705882352941174" width="9.352941176470589" height="9.352941176470589" fill="#101828" style="shape-rendering: crispedges;"/><rect x="52.05882352941176" y="41.705882352941174" width="9.352941176470589" height="9.352941176470589" fill="#101828" style="shape-rendering: crispedges;"/><rect x="61.41176470588235" y="41.705882352941174" width="9.352941176470589" height="9.352941176470589" fill="#101828" style="shape-rendering: crispedges;"/><rect x="70.76470588235294" y="41.705882352941174" width="9.352941176470589" height="9.352941176470589" fill="#101828" style="shape-rendering: crispedges;"/><rect x="80.11764705882354" y="41.705882352941174" width="9.352941176470589" height="9.352941176470589" fill="#101828" style="shape-rendering: crispedges;"/><rect x="89.47058823529413" y="41.705882352941174" width="9.352941176470589" height="9.352941176470589" fill="#101828" style="shape-rendering: crispedges;"/><rect x="98.82352941176472" y="41.705882352941174" width="9.352941176470589" height="9.352941176470589" fill="#101828" style="shape-rendering: crispedges;"/><rect x="117.52941176470591" y="41.705882352941174" width="9.352941176470589" height="9.352941176470589" fill="#101828" style="shape-rendering: crispedges;"/><rect x="126.8823529411765" y="41.705882352941174" width="9.352941176470589" height="9.352941176470589" fill="#101828" style="shape-rendering: crispedges;"/><rect x="145.58823529411768" y="41.705882352941174" width="9.352941176470589" height="9.352941176470589" fill="#101828" style="shape-rendering: crispedges;"/><rect x="164.29411764705884" y="41.705882352941174" width="9.352941176470589" height="9.352941176470589" fill="#101828" style="shape-rendering: crispedges;"/><rect x="173.64705882352942" y="41.705882352941174" width="9.352941176470589" height="9.352941176470589" fill="#101828" style="shape-rendering: crispedges;"/><rect x="183" y="41.705882352941174" width="9.352941176470589" height="9.352941176470589" fill="#101828" style="shape-rendering: crispedges;"/><rect x="211.05882352941174" y="41.705882352941174" width="9.352941176470589" height="9.352941176470589" fill="#101828" style="shape-rendering: crispedges;"/><rect x="220.41176470588232" y="41.705882352941174" width="9.352941176470589" height="9.352941176470589" fill="#101828" style="shape-rendering: crispedges;"/><rect x="229.7647058823529" y="41.705882352941174" width="9.352941176470589" height="9.352941176470589" fill="#101828" style="shape-rendering: crispedges;"/><rect x="248.47058823529406" y="41.705882352941174" width="9.352941176470589" height="9.352941176470589" fill="#101828" style="shape-rendering: crispedges;"/><rect x="257.82352941176464" y="41.705882352941174" width="9.352941176470589" height="9.352941176470589" fill="#101828" style="shape-rendering: crispedges;"/><rect x="267.17647058823525" y="41.705882352941174" width="9.352941176470589" height="9.352941176470589" fill="#101828" style="shape-rendering: crispedges;"/><rect x="276.52941176470586" y="41.705882352941174" width="9.352941176470589" height="9.352941176470589" fill="#101828" style="shape-rendering: crispedges;"/><rect x="285.88235294117646" y="41.705882352941174" width="9.352941176470589" height="9.352941176470589" fill="#101828" style="shape-rendering: crispedges;"/><rect x="295.2352941176471" y="41.705882352941174" width="9.352941176470589" height="9.352941176470589" fill="#101828" style="shape-rendering: crispedges;"/><rect x="304.5882352941177" y="41.705882352941174" width="9.352941176470589" height="9.352941176470589" fill="#101828" style="shape-rendering: crispedges;"/><rect x="42.705882352941174" y="51.05882352941176" width="9.352941176470589" height="9.352941176470589" fill="#101828" style="shape-rendering: crispedges;"/><rect x="98.82352941176472" y="51.05882352941176" width="9.352941176470589" height="9.352941176470589" fill="#101828" style="shape-rendering: crispedges;"/><rect x="117.52941176470591" y="51.05882352941176" width="9.352941176470589" height="9.352941176470589" fill="#101828" style="shape-rendering: crispedges;"/><rect x="136.2352941176471" y="51.05882352941176" width="9.352941176470589" height="9.352941176470589" fill="#101828" style="shape-rendering: crispedges;"/><rect x="164.29411764705884" y="51.05882352941176" width="9.352941176470589" height="9.352941176470589" fill="#101828" style="shape-rendering: crispedges;"/><rect x="192.35294117647058" y="51.05882352941176" width="9.352941176470589" height="9.352941176470589" fill="#101828" style="shape-rendering: crispedges;"/><rect x="201.70588235294116" y="51.05882352941176" width="9.352941176470589" height="9.352941176470589" fill="#101828" style="shape-rendering: crispedges;"/><rect x="211.05882352941174" y="51.05882352941176" width="9.352941176470589" height="9.352941176470589" fill="#101828" style="shape-rendering: crispedges;"/><rect x="229.7647058823529" y="51.05882352941176" width="9.352941176470589" height="9.352941176470589" fill="#101828" style="shape-rendering: crispedges;"/><rect x="248.47058823529406" y="51.05882352941176" width="9.352941176470589" height="9.352941176470589" fill="#101828" style="shape-rendering: crispedges;"/><rect x="304.5882352941177" y="51.05882352941176" width="9.352941176470589" height="9.352941176470589" fill="#101828" style="shape-rendering: crispedges;"/><rect x="42.705882352941174" y="60.41176470588235" width="9.352941176470589" height="9.352941176470589" fill="#101828" style="shape-rendering: crispedges;"/><rect x="61.41176470588235" y="60.41176470588235" width="9.352941176470589" height="9.352941176470589" fill="#101828" style="shape-rendering: crispedges;"/><rect x="70.76470588235294" y="60.41176470588235" width="9.352941176470589" height="9.352941176470589" fill="#101828" style="shape-rendering: crispedges;"/><rect x="80.11764705882354" y="60.41176470588235" width="9.352941176470589" height="9.352941176470589" fill="#101828" style="shape-rendering: crispedges;"/><rect x="98.82352941176472" y="60.41176470588235" width="9.352941176470589" height="9.352941176470589" fill="#101828" style="shape-rendering: crispedges;"/><rect x="154.94117647058826" y="60.41176470588235" width="9.352941176470589" height="9.352941176470589" fill="#101828" style="shape-rendering: crispedges;"/><rect x="192.35294117647058" y="60.41176470588235" width="9.352941176470589" height="9.352941176470589" fill="#101828" style="shape-rendering: crispedges;"/><rect x="211.05882352941174" y="60.41176470588235" width="9.352941176470589" height="9.352941176470589" fill="#101828" style="shape-rendering: crispedges;"/><rect x="248.47058823529406" y="60.41176470588235" width="9.352941176470589" height="9.352941176470589" fill="#101828" style="shape-rendering: crispedges;"/><rect x="267.17647058823525" y="60.41176470588235" width="9.352941176470589" height="9.352941176470589" fill="#101828" style="shape-rendering: crispedges;"/><rect x="276.52941176470586" y="60.41176470588235" width="9.352941176470589" height="9.352941176470589" fill="#101828" style="shape-rendering: crispedges;"/><rect x="285.88235294117646" y="60.41176470588235" width="9.352941176470589" height="9.352941176470589" fill="#101828" style="shape-rendering: crispedges;"/><rect x="304.5882352941177" y="60.41176470588235" width="9.352941176470589" height="9.352941176470589" fill="#101828" style="shape-rendering: crispedges;"/><rect x="42.705882352941174" y="69.76470588235294" width="9.352941176470589" height="9.352941176470589" fill="#101828" style="shape-rendering: crispedges;"/><rect x="61.41176470588235" y="69.76470588235294" width="9.352941176470589" height="9.352941176470589" fill="#101828" style="shape-rendering: crispedges;"/><rect x="70.76470588235294" y="69.76470588235294" width="9.352941176470589" height="9.352941176470589" fill="#101828" style="shape-rendering: crispedges;"/><rect x="80.11764705882354" y="69.76470588235294" width="9.352941176470589" height="9.352941176470589" fill="#101828" style="shape-rendering: crispedges;"/><rect x="98.82352941176472" y="69.76470588235294" width="9.352941176470589" height="9.352941176470589" fill="#101828" style="shape-rendering: crispedges;"/><rect x="117.52941176470591" y="69.76470588235294" width="9.352941176470589" height="9.352941176470589" fill="#101828" style="shape-rendering: crispedges;"/><rect x="154.94117647058826" y="69.76470588235294" width="9.352941176470589" height="9.352941176470589" fill="#101828" style="shape-rendering: crispedges;"/><rect x="173.64705882352942" y="69.76470588235294" width="9.352941176470589" height="9.352941176470589" fill="#101828" style="shape-rendering: crispedges;"/><rect x="183" y="69.76470588235294" width="9.352941176470589" height="9.352941176470589" fill="#101828" style="shape-rendering: crispedges;"/><rect x="201.70588235294116" y="69.76470588235294" width="9.352941176470589" height="9.352941176470589" fill="#101828" style="shape-rendering: crispedges;"/><rect x="229.7647058823529" y="69.76470588235294" width="9.352941176470589" height="9.352941176470589" fill="#101828" style="shape-rendering: crispedges;"/><rect x="248.47058823529406" y="69.76470588235294" width="9.352941176470589" height="9.352941176470589" fill="#101828" style="shape-rendering: crispedges;"/><rect x="267.17647058823525" y="69.76470588235294" width="9.352941176470589" height="9.352941176470589" fill="#101828" style="shape-rendering: crispedges;"/><rect x="276.52941176470586" y="69.76470588235294" width="9.352941176470589" height="9.352941176470589" fill="#101828" style="shape-rendering: crispedges;"/><rect x="285.88235294117646" y="69.76470588235294" width="9.352941176470589" height="9.352941176470589" fill="#101828" style="shape-rendering: crispedges;"/><rect x="304.5882352941177" y="69.76470588235294" width="9.352941176470589" height="9.352941176470589" fill="#101828" style="shape-rendering: crispedges;"/><rect x="42.705882352941174" y="79.11764705882354" width="9.352941176470589" height="9.352941176470589" fill="#101828" style="shape-rendering: crispedges;"/><rect x="61.41176470588235" y="79.11764705882354" width="9.352941176470589" height="9.352941176470589" fill="#101828" style="shape-rendering: crispedges;"/><rect x="70.76470588235294" y="79.11764705882354" width="9.352941176470589" height="9.352941176470589" fill="#101828" style="shape-rendering: crispedges;"/><rect x="80.11764705882354" y="79.11764705882354" width="9.352941176470589" height="9.352941176470589" fill="#101828" style="shape-rendering: crispedges;"/><rect x="98.82352941176472" y="79.11764705882354" width="9.352941176470589" height="9.352941176470589" fill="#101828" style="shape-rendering: crispedges;"/><rect x="126.8823529411765" y="79.11764705882354" width="9.352941176470589" height="9.352941176470589" fill="#101828" style="shape-rendering: crispedges;"/><rect x="136.2352941176471" y="79.11764705882354" width="9.352941176470589" height="9.352941176470589" fill="#101828" style="shape-rendering: crispedges;"/><rect x="145.58823529411768" y="79.11764705882354" width="9.352941176470589" height="9.352941176470589" fill="#101828" style="shape-rendering: crispedges;"/><rect x="173.64705882352942" y="79.11764705882354" width="9.352941176470589" height="9.352941176470589" fill="#101828" style="shape-rendering: crispedges;"/><rect x="192.35294117647058" y="79.11764705882354" width="9.352941176470589" height="9.352941176470589" fill="#101828" style="shape-rendering: crispedges;"/><rect x="201.70588235294116" y="79.11764705882354" width="9.352941176470589" height="9.352941176470589" fill="#101828" style="shape-rendering: crispedges;"/><rect x="220.41176470588232" y="79.11764705882354" width="9.352941176470589" height="9.352941176470589" fill="#101828" style="shape-rendering: crispedges;"/><rect x="248.47058823529406" y="79.11764705882354" width="9.352941176470589" height="9.352941176470589" fill="#101828" style="shape-rendering: crispedges;"/><rect x="267.17647058823525" y="79.11764705882354" width="9.352941176470589" height="9.352941176470589" fill="#101828" style="shape-rendering: crispedges;"/><rect x="276.52941176470586" y="79.11764705882354" width="9.352941176470589" height="9.352941176470589" fill="#101828" style="shape-rendering: crispedges;"/><rect x="285.88235294117646" y="79.11764705882354" width="9.352941176470589" height="9.352941176470589" fill="#101828" style="shape-rendering: crispedges;"/><rect x="304.5882352941177" y="79.11764705882354" width="9.352941176470589" height="9.352941176470589" fill="#101828" style="shape-rendering: crispedges;"/><rect x="42.705882352941174" y="88.47058823529413" width="9.352941176470589" height="9.352941176470589" fill="#101828" style="shape-rendering: crispedges;"/><rect x="98.82352941176472" y="88.47058823529413" width="9.352941176470589" height="9.352941176470589" fill="#101828" style="shape-rendering: crispedges;"/><rect x="126.8823529411765" y="88.47058823529413" width="9.352941176470589" height="9.352941176470589" fill="#101828" style="shape-rendering: crispedges;"/><rect x="136.2352941176471" y="88.47058823529413" width="9.352941176470589" height="9.352941176470589" fill="#101828" style="shape-rendering: crispedges;"/><rect x="154.94117647058826" y="88.47058823529413" width="9.352941176470589" height="9.352941176470589" fill="#101828" style="shape-rendering: crispedges;"/><rect x="164.29411764705884" y="88.47058823529413" width="9.352941176470589" height="9.352941176470589" fill="#101828" style="shape-rendering: crispedges;"/><rect x="183" y="88.47058823529413" width="9.352941176470589" height="9.352941176470589" fill="#101828" style="shape-rendering: crispedges;"/><rect x="192.35294117647058" y="88.47058823529413" width="9.352941176470589" height="9.352941176470589" fill="#101828" style="shape-rendering: crispedges;"/><rect x="201.70588235294116" y="88.47058823529413" width="9.352941176470589" height="9.352941176470589" fill="#101828" style="shape-rendering: crispedges;"/><rect x="211.05882352941174" y="88.47058823529413" width="9.352941176470589" height="9.352941176470589" fill="#101828" style="shape-rendering: crispedges;"/><rect x="220.41176470588232" y="88.47058823529413" width="9.352941176470589" height="9.352941176470589" fill="#101828" style="shape-rendering: crispedges;"/><rect x="229.7647058823529" y="88.47058823529413" width="9.352941176470589" height="9.352941176470589" fill="#101828" style="shape-rendering: crispedges;"/><rect x="248.47058823529406" y="88.47058823529413" width="9.352941176470589" height="9.352941176470589" fill="#101828" style="shape-rendering: crispedges;"/><rect x="304.5882352941177" y="88.47058823529413" width="9.352941176470589" height="9.352941176470589" fill="#101828" style="shape-rendering: crispedges;"/><rect x="42.705882352941174" y="97.82352941176472" width="9.352941176470589" height="9.352941176470589" fill="#101828" style="shape-rendering: crispedges;"/><rect x="52.05882352941176" y="97.82352941176472" width="9.352941176470589" height="9.352941176470589" fill="#101828" style="shape-rendering: crispedges;"/><rect x="61.41176470588235" y="97.82352941176472" width="9.352941176470589" height="9.352941176470589" fill="#101828" style="shape-rendering: crispedges;"/><rect x="70.76470588235294" y="97.82352941176472" width="9.352941176470589" height="9.352941176470589" fill="#101828" style="shape-rendering: crispedges;"/><rect x="80.11764705882354" y="97.82352941176472" width="9.352941176470589" height="9.352941176470589" fill="#101828" style="shape-rendering: crispedges;"/><rect x="89.47058823529413" y="97.82352941176472" width="9.352941176470589" height="9.352941176470589" fill="#101828" style="shape-rendering: crispedges;"/><rect x="98.82352941176472" y="97.82352941176472" width="9.352941176470589" height="9.352941176470589" fill="#101828" style="shape-rendering: crispedges;"/><rect x="117.52941176470591" y="97.82352941176472" width="9.352941176470589" height="9.352941176470589" fill="#101828" style="shape-rendering: crispedges;"/><rect x="136.2352941176471" y="97.82352941176472" width="9.352941176470589" height="9.352941176470589" fill="#101828" style="shape-rendering: crispedges;"/><rect x="154.94117647058826" y="97.82352941176472" width="9.352941176470589" height="9.352941176470589" fill="#101828" style="shape-rendering: crispedges;"/><rect x="173.64705882352942" y="97.82352941176472" width="9.352941176470589" height="9.352941176470589" fill="#101828" style="shape-rendering: crispedges;"/><rect x="192.35294117647058" y="97.82352941176472" width="9.352941176470589" height="9.352941176470589" fill="#101828" style="shape-rendering: crispedges;"/><rect x="211.05882352941174" y="97.82352941176472" width="9.352941176470589" height="9.352941176470589" fill="#101828" style="shape-rendering: crispedges;"/><rect x="229.7647058823529" y="97.82352941176472" width="9.352941176470589" height="9.352941176470589" fill="#101828" style="shape-rendering: crispedges;"/><rect x="248.47058823529406" y="97.82352941176472" width="9.352941176470589" height="9.352941176470589" fill="#101828" style="shape-rendering: crispedges;"/><rect x="257.82352941176464" y="97.82352941176472" width="9.352941176470589" height="9.352941176470589" fill="#101828" style="shape-rendering: crispedges;"/><rect x="267.17647058823525" y="97.82352941176472" width="9.352941176470589" height="9.352941176470589" fill="#101828" style="shape-rendering: crispedges;"/><rect x="276.52941176470586" y="97.82352941176472" width="9.352941176470589" height="9.352941176470589" fill="#101828" style="shape-rendering: crispedges;"/><rect x="285.88235294117646" y="97.82352941176472" width="9.352941176470589" height="9.352941176470589" fill="#101828" style="shape-rendering: crispedges;"/><rect x="295.2352941176471" y="97.82352941176472" width="9.352941176470589" height="9.352941176470589" fill="#101828" style="shape-rendering: crispedges;"/><rect x="304.5882352941177" y="97.82352941176472" width="9.352941176470589" height="9.352941176470589" fill="#101828" style="shape-rendering: crispedges;"/><rect x="117.52941176470591" y="107.17647058823532" width="9.352941176470589" height="9.352941176470589" fill="#101828" style="shape-rendering: crispedges;"/><rect x="126.8823529411765" y="107.17647058823532" width="9.352941176470589" height="9.352941176470589" fill="#101828" style="shape-rendering: crispedges;"/><rect x="145.58823529411768" y="107.17647058823532" width="9.352941176470589" height="9.352941176470589" fill="#101828" style="shape-rendering: crispedges;"/><rect x="154.94117647058826" y="107.17647058823532" width="9.352941176470589" height="9.352941176470589" fill="#101828" style="shape-rendering: crispedges;"/><rect x="183" y="107.17647058823532" width="9.352941176470589" height="9.352941176470589" fill="#101828" style="shape-rendering: crispedges;"/><rect x="192.35294117647058" y="107.17647058823532" width="9.352941176470589" height="9.352941176470589" fill="#101828" style="shape-rendering: crispedges;"/><rect x="201.70588235294116" y="107.17647058823532" width="9.352941176470589" height="9.352941176470589" fill="#101828" style="shape-rendering: crispedges;"/><rect x="229.7647058823529" y="107.17647058823532" width="9.352941176470589" height="9.352941176470589" fill="#101828" style="shape-rendering: crispedges;"/><rect x="42.705882352941174" y="116.52941176470591" width="9.352941176470589" height="9.352941176470589" fill="#101828" style="shape-rendering: crispedges;"/><rect x="61.41176470588235" y="116.52941176470591" width="9.352941176470589" height="9.352941176470589" fill="#101828" style="shape-rendering: crispedges;"/><rect x="70.76470588235294" y="116.52941176470591" width="9.352941176470589" height="9.352941176470589" fill="#101828" style="shape-rendering: crispedges;"/><rect x="89.47058823529413" y="116.52941176470591" width="9.352941176470589" height="9.352941176470589" fill="#101828" style="shape-rendering: crispedges;"/><rect x="98.82352941176472" y="116.52941176470591" width="9.352941176470589" height="9.352941176470589" fill="#101828" style="shape-rendering: crispedges;"/><rect x="108.17647058823532" y="116.52941176470591" width="9.352941176470589" height="9.352941176470589" fill="#101828" style="shape-rendering: crispedges;"/><rect x="126.8823529411765" y="116.52941176470591" width="9.352941176470589" height="9.352941176470589" fill="#101828" style="shape-rendering: crispedges;"/><rect x="136.2352941176471" y="116.52941176470591" width="9.352941176470589" height="9.352941176470589" fill="#101828" style="shape-rendering: crispedges;"/><rect x="145.58823529411768" y="116.52941176470591" width="9.352941176470589" height="9.352941176470589" fill="#101828" style="shape-rendering: crispedges;"/><rect x="164.29411764705884" y="116.52941176470591" width="9.352941176470589" height="9.352941176470589" fill="#101828" style="shape-rendering: crispedges;"/><rect x="183" y="116.52941176470591" width="9.352941176470589" height="9.352941176470589" fill="#101828" style="shape-rendering: crispedges;"/><rect x="201.70588235294116" y="116.52941176470591" width="9.352941176470589" height="9.352941176470589" fill="#101828" style="shape-rendering: crispedges;"/><rect x="211.05882352941174" y="116.52941176470591" width="9.352941176470589" height="9.352941176470589" fill="#101828" style="shape-rendering: crispedges;"/><rect x="248.47058823529406" y="116.52941176470591" width="9.352941176470589" height="9.352941176470589" fill="#101828" style="shape-rendering: crispedges;"/><rect x="276.52941176470586" y="116.52941176470591" width="9.352941176470589" height="9.352941176470589" fill="#101828" style="shape-rendering: crispedges;"/><rect x="295.2352941176471" y="116.52941176470591" width="9.352941176470589" height="9.352941176470589" fill="#101828" style="shape-rendering: crispedges;"/><rect x="304.5882352941177" y="116.52941176470591" width="9.352941176470589" height="9.352941176470589" fill="#101828" style="shape-rendering: crispedges;"/><rect x="52.05882352941176" y="125.8823529411765" width="9.352941176470589" height="9.352941176470589" fill="#101828" style="shape-rendering: crispedges;"/><rect x="61.41176470588235" y="125.8823529411765" width="9.352941176470589" height="9.352941176470589" fill="#101828" style="shape-rendering: crispedges;"/><rect x="80.11764705882354" y="125.8823529411765" width="9.352941176470589" height="9.352941176470589" fill="#101828" style="shape-rendering: crispedges;"/><rect x="126.8823529411765" y="125.8823529411765" width="9.352941176470589" height="9.352941176470589" fill="#101828" style="shape-rendering: crispedges;"/><rect x="154.94117647058826" y="125.8823529411765" width="9.352941176470589" height="9.352941176470589" fill="#101828" style="shape-rendering: crispedges;"/><rect x="164.29411764705884" y="125.8823529411765" width="9.352941176470589" height="9.352941176470589" fill="#101828" style="shape-rendering: crispedges;"/><rect x="173.64705882352942" y="125.8823529411765" width="9.352941176470589" height="9.352941176470589" fill="#101828" style="shape-rendering: crispedges;"/><rect x="183" y="125.8823529411765" width="9.352941176470589" height="9.352941176470589" fill="#101828" style="shape-rendering: crispedges;"/><rect x="201.70588235294116" y="125.8823529411765" width="9.352941176470589" height="9.352941176470589" fill="#101828" style="shape-rendering: crispedges;"/><rect x="211.05882352941174" y="125.8823529411765" width="9.352941176470589" height="9.352941176470589" fill="#101828" style="shape-rendering: crispedges;"/><rect x="220.41176470588232" y="125.8823529411765" width="9.352941176470589" height="9.352941176470589" fill="#101828" style="shape-rendering: crispedges;"/><rect x="229.7647058823529" y="125.8823529411765" width="9.352941176470589" height="9.352941176470589" fill="#101828" style="shape-rendering: crispedges;"/><rect x="248.47058823529406" y="125.8823529411765" width="9.352941176470589" height="9.352941176470589" fill="#101828" style="shape-rendering: crispedges;"/><rect x="257.82352941176464" y="125.8823529411765" width="9.352941176470589" height="9.352941176470589" fill="#101828" style="shape-rendering: crispedges;"/><rect x="267.17647058823525" y="125.8823529411765" width="9.352941176470589" height="9.352941176470589" fill="#101828" style="shape-rendering: crispedges;"/><rect x="304.5882352941177" y="125.8823529411765" width="9.352941176470589" height="9.352941176470589" fill="#101828" style="shape-rendering: crispedges;"/><rect x="42.705882352941174" y="135.2352941176471" width="9.352941176470589" height="9.352941176470589" fill="#101828" style="shape-rendering: crispedges;"/><rect x="61.41176470588235" y="135.2352941176471" width="9.352941176470589" height="9.352941176470589" fill="#101828" style="shape-rendering: crispedges;"/><rect x="70.76470588235294" y="135.2352941176471" width="9.352941176470589" height="9.352941176470589" fill="#101828" style="shape-rendering: crispedges;"/><rect x="98.82352941176472" y="135.2352941176471" width="9.352941176470589" height="9.352941176470589" fill="#101828" style="shape-rendering: crispedges;"/><rect x="108.17647058823532" y="135.2352941176471" width="9.352941176470589" height="9.352941176470589" fill="#101828" style="shape-rendering: crispedges;"/><rect x="126.8823529411765" y="135.2352941176471" width="9.352941176470589" height="9.352941176470589" fill="#101828" style="shape-rendering: crispedges;"/><rect x="145.58823529411768" y="135.2352941176471" width="9.352941176470589" height="9.352941176470589" fill="#101828" style="shape-rendering: crispedges;"/><rect x="154.94117647058826" y="135.2352941176471" width="9.352941176470589" height="9.352941176470589" fill="#101828" style="shape-rendering: crispedges;"/><rect x="164.29411764705884" y="135.2352941176471" width="9.352941176470589" height="9.352941176470589" fill="#101828" style="shape-rendering: crispedges;"/><rect x="192.35294117647058" y="135.2352941176471" width="9.352941176470589" height="9.352941176470589" fill="#101828" style="shape-rendering: crispedges;"/><rect x="211.05882352941174" y="135.2352941176471" width="9.352941176470589" height="9.352941176470589" fill="#101828" style="shape-rendering: crispedges;"/><rect x="229.7647058823529" y="135.2352941176471" width="9.352941176470589" height="9.352941176470589" fill="#101828" style="shape-rendering: crispedges;"/><rect x="239.11764705882348" y="135.2352941176471" width="9.352941176470589" height="9.352941176470589" fill="#101828" style="shape-rendering: crispedges;"/><rect x="257.82352941176464" y="135.2352941176471" width="9.352941176470589" height="9.352941176470589" fill="#101828" style="shape-rendering: crispedges;"/><rect x="285.88235294117646" y="135.2352941176471" width="9.352941176470589" height="9.352941176470589" fill="#101828" style="shape-rendering: crispedges;"/><rect x="295.2352941176471" y="135.2352941176471" width="9.352941176470589" height="9.352941176470589" fill="#101828" style="shape-rendering: crispedges;"/><rect x="42.705882352941174" y="144.58823529411768" width="9.352941176470589" height="9.352941176470589" fill="#101828" style="shape-rendering: crispedges;"/><rect x="52.05882352941176" y="144.58823529411768" width="9.352941176470589" height="9.352941176470589" fill="#101828" style="shape-rendering: crispedges;"/><rect x="61.41176470588235" y="144.58823529411768" width="9.352941176470589" height="9.352941176470589" fill="#101828" style="shape-rendering: crispedges;"/><rect x="80.11764705882354" y="144.58823529411768" width="9.352941176470589" height="9.352941176470589" fill="#101828" style="shape-rendering: crispedges;"/><rect x="108.17647058823532" y="144.58823529411768" width="9.352941176470589" height="9.352941176470589" fill="#101828" style="shape-rendering: crispedges;"/><rect x="126.8823529411765" y="144.58823529411768" width="9.352941176470589" height="9.352941176470589" fill="#101828" style="shape-rendering: crispedges;"/><rect x="145.58823529411768" y="144.58823529411768" width="9.352941176470589" height="9.352941176470589" fill="#101828" style="shape-rendering: crispedges;"/><rect x="192.35294117647058" y="144.58823529411768" width="9.352941176470589" height="9.352941176470589" fill="#101828" style="shape-rendering: crispedges;"/><rect x="211.05882352941174" y="144.58823529411768" width="9.352941176470589" height="9.352941176470589" fill="#101828" style="shape-rendering: crispedges;"/><rect x="229.7647058823529" y="144.58823529411768" width="9.352941176470589" height="9.352941176470589" fill="#101828" style="shape-rendering: crispedges;"/><rect x="239.11764705882348" y="144.58823529411768" width="9.352941176470589" height="9.352941176470589" fill="#101828" style="shape-rendering: crispedges;"/><rect x="248.47058823529406" y="144.58823529411768" width="9.352941176470589" height="9.352941176470589" fill="#101828" style="shape-rendering: crispedges;"/><rect x="267.17647058823525" y="144.58823529411768" width="9.352941176470589" height="9.352941176470589" fill="#101828" style="shape-rendering: crispedges;"/><rect x="304.5882352941177" y="144.58823529411768" width="9.352941176470589" height="9.352941176470589" fill="#101828" style="shape-rendering: crispedges;"/><rect x="42.705882352941174" y="153.94117647058826" width="9.352941176470589" height="9.352941176470589" fill="#101828" style="shape-rendering: crispedges;"/><rect x="61.41176470588235" y="153.94117647058826" width="9.352941176470589" height="9.352941176470589" fill="#101828" style="shape-rendering: crispedges;"/><rect x="80.11764705882354" y="153.94117647058826" width="9.352941176470589" height="9.352941176470589" fill="#101828" style="shape-rendering: crispedges;"/><rect x="98.82352941176472" y="153.94117647058826" width="9.352941176470589" height="9.352941176470589" fill="#101828" style="shape-rendering: crispedges;"/><rect x="117.52941176470591" y="153.94117647058826" width="9.352941176470589" height="9.352941176470589" fill="#101828" style="shape-rendering: crispedges;"/><rect x="173.64705882352942" y="153.94117647058826" width="9.352941176470589" height="9.352941176470589" fill="#101828" style="shape-rendering: crispedges;"/><rect x="183" y="153.94117647058826" width="9.352941176470589" height="9.352941176470589" fill="#101828" style="shape-rendering: crispedges;"/><rect x="201.70588235294116" y="153.94117647058826" width="9.352941176470589" height="9.352941176470589" fill="#101828" style="shape-rendering: crispedges;"/><rect x="276.52941176470586" y="153.94117647058826" width="9.352941176470589" height="9.352941176470589" fill="#101828" style="shape-rendering: crispedges;"/><rect x="285.88235294117646" y="153.94117647058826" width="9.352941176470589" height="9.352941176470589" fill="#101828" style="shape-rendering: crispedges;"/><rect x="42.705882352941174" y="163.29411764705884" width="9.352941176470589" height="9.352941176470589" fill="#101828" style="shape-rendering: crispedges;"/><rect x="52.05882352941176" y="163.29411764705884" width="9.352941176470589" height="9.352941176470589" fill="#101828" style="shape-rendering: crispedges;"/><rect x="61.41176470588235" y="163.29411764705884" width="9.352941176470589" height="9.352941176470589" fill="#101828" style="shape-rendering: crispedges;"/><rect x="80.11764705882354" y="163.29411764705884" width="9.352941176470589" height="9.352941176470589" fill="#101828" style="shape-rendering: crispedges;"/><rect x="108.17647058823532" y="163.29411764705884" width="9.352941176470589" height="9.352941176470589" fill="#101828" style="shape-rendering: crispedges;"/><rect x="145.58823529411768" y="163.29411764705884" width="9.352941176470589" height="9.352941176470589" fill="#101828" style="shape-rendering: crispedges;"/><rect x="173.64705882352942" y="163.29411764705884" width="9.352941176470589" height="9.352941176470589" fill="#101828" style="shape-rendering: crispedges;"/><rect x="192.35294117647058" y="163.29411764705884" width="9.352941176470589" height="9.352941176470589" fill="#101828" style="shape-rendering: crispedges;"/><rect x="201.70588235294116" y="163.29411764705884" width="9.352941176470589" height="9.352941176470589" fill="#101828" style="shape-rendering: crispedges;"/><rect x="211.05882352941174" y="163.29411764705884" width="9.352941176470589" height="9.352941176470589" fill="#101828" style="shape-rendering: crispedges;"/><rect x="220.41176470588232" y="163.29411764705884" width="9.352941176470589" height="9.352941176470589" fill="#101828" style="shape-rendering: crispedges;"/><rect x="248.47058823529406" y="163.29411764705884" width="9.352941176470589" height="9.352941176470589" fill="#101828" style="shape-rendering: crispedges;"/><rect x="285.88235294117646" y="163.29411764705884" width="9.352941176470589" height="9.352941176470589" fill="#101828" style="shape-rendering: crispedges;"/><rect x="295.2352941176471" y="163.29411764705884" width="9.352941176470589" height="9.352941176470589" fill="#101828" style="shape-rendering: crispedges;"/><rect x="304.5882352941177" y="163.29411764705884" width="9.352941176470589" height="9.352941176470589" fill="#101828" style="shape-rendering: crispedges;"/><rect x="61.41176470588235" y="172.64705882352942" width="9.352941176470589" height="9.352941176470589" fill="#101828" style="shape-rendering: crispedges;"/><rect x="70.76470588235294" y="172.64705882352942" width="9.352941176470589" height="9.352941176470589" fill="#101828" style="shape-rendering: crispedges;"/><rect x="80.11764705882354" y="172.64705882352942" width="9.352941176470589" height="9.352941176470589" fill="#101828" style="shape-rendering: crispedges;"/><rect x="89.47058823529413" y="172.64705882352942" width="9.352941176470589" height="9.352941176470589" fill="#101828" style="shape-rendering: crispedges;"/><rect x="98.82352941176472" y="172.64705882352942" width="9.352941176470589" height="9.352941176470589" fill="#101828" style="shape-rendering: crispedges;"/><rect x="108.17647058823532" y="172.64705882352942" width="9.352941176470589" height="9.352941176470589" fill="#101828" style="shape-rendering: crispedges;"/><rect x="126.8823529411765" y="172.64705882352942" width="9.352941176470589" height="9.352941176470589" fill="#101828" style="shape-rendering: crispedges;"/><rect x="154.94117647058826" y="172.64705882352942" width="9.352941176470589" height="9.352941176470589" fill="#101828" style="shape-rendering: crispedges;"/><rect x="164.29411764705884" y="172.64705882352942" width="9.352941176470589" height="9.352941176470589" fill="#101828" style="shape-rendering: crispedges;"/><rect x="183" y="172.64705882352942" width="9.352941176470589" height="9.352941176470589" fill="#101828" style="shape-rendering: crispedges;"/><rect x="192.35294117647058" y="172.64705882352942" width="9.352941176470589" height="9.352941176470589" fill="#101828" style="shape-rendering: crispedges;"/><rect x="201.70588235294116" y="172.64705882352942" width="9.352941176470589" height="9.352941176470589" fill="#101828" style="shape-rendering: crispedges;"/><rect x="220.41176470588232" y="172.64705882352942" width="9.352941176470589" height="9.352941176470589" fill="#101828" style="shape-rendering: crispedges;"/><rect x="229.7647058823529" y="172.64705882352942" width="9.352941176470589" height="9.352941176470589" fill="#101828" style="shape-rendering: crispedges;"/><rect x="248.47058823529406" y="172.64705882352942" width="9.352941176470589" height="9.352941176470589" fill="#101828" style="shape-rendering: crispedges;"/><rect x="285.88235294117646" y="172.64705882352942" width="9.352941176470589" height="9.352941176470589" fill="#101828" style="shape-rendering: crispedges;"/><rect x="295.2352941176471" y="172.64705882352942" width="9.352941176470589" height="9.352941176470589" fill="#101828" style="shape-rendering: crispedges;"/><rect x="304.5882352941177" y="172.64705882352942" width="9.352941176470589" height="9.352941176470589" fill="#101828" style="shape-rendering: crispedges;"/><rect x="70.76470588235294" y="182" width="9.352941176470589" height="9.352941176470589" fill="#101828" style="shape-rendering: crispedges;"/><rect x="126.8823529411765" y="182" width="9.352941176470589" height="9.352941176470589" fill="#101828" style="shape-rendering: crispedges;"/><rect x="145.58823529411768" y="182" width="9.352941176470589" height="9.352941176470589" fill="#101828" style="shape-rendering: crispedges;"/><rect x="154.94117647058826" y="182" width="9.352941176470589" height="9.352941176470589" fill="#101828" style="shape-rendering: crispedges;"/><rect x="173.64705882352942" y="182" width="9.352941176470589" height="9.352941176470589" fill="#101828" style="shape-rendering: crispedges;"/><rect x="192.35294117647058" y="182" width="9.352941176470589" height="9.352941176470589" fill="#101828" style="shape-rendering: crispedges;"/><rect x="211.05882352941174" y="182" width="9.352941176470589" height="9.352941176470589" fill="#101828" style="shape-rendering: crispedges;"/><rect x="220.41176470588232" y="182" width="9.352941176470589" height="9.352941176470589" fill="#101828" style="shape-rendering: crispedges;"/><rect x="229.7647058823529" y="182" width="9.352941176470589" height="9.352941176470589" fill="#101828" style="shape-rendering: crispedges;"/><rect x="239.11764705882348" y="182" width="9.352941176470589" height="9.352941176470589" fill="#101828" style="shape-rendering: crispedges;"/><rect x="248.47058823529406" y="182" width="9.352941176470589" height="9.352941176470589" fill="#101828" style="shape-rendering: crispedges;"/><rect x="257.82352941176464" y="182" width="9.352941176470589" height="9.352941176470589" fill="#101828" style="shape-rendering: crispedges;"/><rect x="267.17647058823525" y="182" width="9.352941176470589" height="9.352941176470589" fill="#101828" style="shape-rendering: crispedges;"/><rect x="295.2352941176471" y="182" width="9.352941176470589" height="9.352941176470589" fill="#101828" style="shape-rendering: crispedges;"/><rect x="52.05882352941176" y="191.35294117647058" width="9.352941176470589" height="9.352941176470589" fill="#101828" style="shape-rendering: crispedges;"/><rect x="61.41176470588235" y="191.35294117647058" width="9.352941176470589" height="9.352941176470589" fill="#101828" style="shape-rendering: crispedges;"/><rect x="70.76470588235294" y="191.35294117647058" width="9.352941176470589" height="9.352941176470589" fill="#101828" style="shape-rendering: crispedges;"/><rect x="98.82352941176472" y="191.35294117647058" width="9.352941176470589" height="9.352941176470589" fill="#101828" style="shape-rendering: crispedges;"/><rect x="108.17647058823532" y="191.35294117647058" width="9.352941176470589" height="9.352941176470589" fill="#101828" style="shape-rendering: crispedges;"/><rect x="117.52941176470591" y="191.35294117647058" width="9.352941176470589" height="9.352941176470589" fill="#101828" style="shape-rendering: crispedges;"/><rect x="126.8823529411765" y="191.35294117647058" width="9.352941176470589" height="9.352941176470589" fill="#101828" style="shape-rendering: crispedges;"/><rect x="136.2352941176471" y="191.35294117647058" width="9.352941176470589" height="9.352941176470589" fill="#101828" style="shape-rendering: crispedges;"/><rect x="145.58823529411768" y="191.35294117647058" width="9.352941176470589" height="9.352941176470589" fill="#101828" style="shape-rendering: crispedges;"/><rect x="154.94117647058826" y="191.35294117647058" width="9.352941176470589" height="9.352941176470589" fill="#101828" style="shape-rendering: crispedges;"/><rect x="173.64705882352942" y="191.35294117647058" width="9.352941176470589" height="9.352941176470589" fill="#101828" style="shape-rendering: crispedges;"/><rect x="183" y="191.35294117647058" width="9.352941176470589" height="9.352941176470589" fill="#101828" style="shape-rendering: crispedges;"/><rect x="211.05882352941174" y="191.35294117647058" width="9.352941176470589" height="9.352941176470589" fill="#101828" style="shape-rendering: crispedges;"/><rect x="220.41176470588232" y="191.35294117647058" width="9.352941176470589" height="9.352941176470589" fill="#101828" style="shape-rendering: crispedges;"/><rect x="229.7647058823529" y="191.35294117647058" width="9.352941176470589" height="9.352941176470589" fill="#101828" style="shape-rendering: crispedges;"/><rect x="267.17647058823525" y="191.35294117647058" width="9.352941176470589" height="9.352941176470589" fill="#101828" style="shape-rendering: crispedges;"/><rect x="276.52941176470586" y="191.35294117647058" width="9.352941176470589" height="9.352941176470589" fill="#101828" style="shape-rendering: crispedges;"/><rect x="295.2352941176471" y="191.35294117647058" width="9.352941176470589" height="9.352941176470589" fill="#101828" style="shape-rendering: crispedges;"/><rect x="52.05882352941176" y="200.70588235294116" width="9.352941176470589" height="9.352941176470589" fill="#101828" style="shape-rendering: crispedges;"/><rect x="61.41176470588235" y="200.70588235294116" width="9.352941176470589" height="9.352941176470589" fill="#101828" style="shape-rendering: crispedges;"/><rect x="89.47058823529413" y="200.70588235294116" width="9.352941176470589" height="9.352941176470589" fill="#101828" style="shape-rendering: crispedges;"/><rect x="136.2352941176471" y="200.70588235294116" width="9.352941176470589" height="9.352941176470589" fill="#101828" style="shape-rendering: crispedges;"/><rect x="154.94117647058826" y="200.70588235294116" width="9.352941176470589" height="9.352941176470589" fill="#101828" style="shape-rendering: crispedges;"/><rect x="173.64705882352942" y="200.70588235294116" width="9.352941176470589" height="9.352941176470589" fill="#101828" style="shape-rendering: crispedges;"/><rect x="192.35294117647058" y="200.70588235294116" width="9.352941176470589" height="9.352941176470589" fill="#101828" style="shape-rendering: crispedges;"/><rect x="201.70588235294116" y="200.70588235294116" width="9.352941176470589" height="9.352941176470589" fill="#101828" style="shape-rendering: crispedges;"/><rect x="257.82352941176464" y="200.70588235294116" width="9.352941176470589" height="9.352941176470589" fill="#101828" style="shape-rendering: crispedges;"/><rect x="276.52941176470586" y="200.70588235294116" width="9.352941176470589" height="9.352941176470589" fill="#101828" style="shape-rendering: crispedges;"/><rect x="285.88235294117646" y="200.70588235294116" width="9.352941176470589" height="9.352941176470589" fill="#101828" style="shape-rendering: crispedges;"/><rect x="295.2352941176471" y="200.70588235294116" width="9.352941176470589" height="9.352941176470589" fill="#101828" style="shape-rendering: crispedges;"/><rect x="42.705882352941174" y="210.05882352941174" width="9.352941176470589" height="9.352941176470589" fill="#101828" style="shape-rendering: crispedges;"/><rect x="80.11764705882354" y="210.05882352941174" width="9.352941176470589" height="9.352941176470589" fill="#101828" style="shape-rendering: crispedges;"/><rect x="89.47058823529413" y="210.05882352941174" width="9.352941176470589" height="9.352941176470589" fill="#101828" style="shape-rendering: crispedges;"/><rect x="98.82352941176472" y="210.05882352941174" width="9.352941176470589" height="9.352941176470589" fill="#101828" style="shape-rendering: crispedges;"/><rect x="108.17647058823532" y="210.05882352941174" width="9.352941176470589" height="9.352941176470589" fill="#101828" style="shape-rendering: crispedges;"/><rect x="117.52941176470591" y="210.05882352941174" width="9.352941176470589" height="9.352941176470589" fill="#101828" style="shape-rendering: crispedges;"/><rect x="145.58823529411768" y="210.05882352941174" width="9.352941176470589" height="9.352941176470589" fill="#101828" style="shape-rendering: crispedges;"/><rect x="154.94117647058826" y="210.05882352941174" width="9.352941176470589" height="9.352941176470589" fill="#101828" style="shape-rendering: crispedges;"/><rect x="164.29411764705884" y="210.05882352941174" width="9.352941176470589" height="9.352941176470589" fill="#101828" style="shape-rendering: crispedges;"/><rect x="173.64705882352942" y="210.05882352941174" width="9.352941176470589" height="9.352941176470589" fill="#101828" style="shape-rendering: crispedges;"/><rect x="183" y="210.05882352941174" width="9.352941176470589" height="9.352941176470589" fill="#101828" style="shape-rendering: crispedges;"/><rect x="192.35294117647058" y="210.05882352941174" width="9.352941176470589" height="9.352941176470589" fill="#101828" style="shape-rendering: crispedges;"/><rect x="229.7647058823529" y="210.05882352941174" width="9.352941176470589" height="9.352941176470589" fill="#101828" style="shape-rendering: crispedges;"/><rect x="248.47058823529406" y="210.05882352941174" width="9.352941176470589" height="9.352941176470589" fill="#101828" style="shape-rendering: crispedges;"/><rect x="257.82352941176464" y="210.05882352941174" width="9.352941176470589" height="9.352941176470589" fill="#101828" style="shape-rendering: crispedges;"/><rect x="267.17647058823525" y="210.05882352941174" width="9.352941176470589" height="9.352941176470589" fill="#101828" style="shape-rendering: crispedges;"/><rect x="285.88235294117646" y="210.05882352941174" width="9.352941176470589" height="9.352941176470589" fill="#101828" style="shape-rendering: crispedges;"/><rect x="61.41176470588235" y="219.41176470588232" width="9.352941176470589" height="9.352941176470589" fill="#101828" style="shape-rendering: crispedges;"/><rect x="70.76470588235294" y="219.41176470588232" width="9.352941176470589" height="9.352941176470589" fill="#101828" style="shape-rendering: crispedges;"/><rect x="80.11764705882354" y="219.41176470588232" width="9.352941176470589" height="9.352941176470589" fill="#101828" style="shape-rendering: crispedges;"/><rect x="89.47058823529413" y="219.41176470588232" width="9.352941176470589" height="9.352941176470589" fill="#101828" style="shape-rendering: crispedges;"/><rect x="108.17647058823532" y="219.41176470588232" width="9.352941176470589" height="9.352941176470589" fill="#101828" style="shape-rendering: crispedges;"/><rect x="117.52941176470591" y="219.41176470588232" width="9.352941176470589" height="9.352941176470589" fill="#101828" style="shape-rendering: crispedges;"/><rect x="136.2352941176471" y="219.41176470588232" width="9.352941176470589" height="9.352941176470589" fill="#101828" style="shape-rendering: crispedges;"/><rect x="164.29411764705884" y="219.41176470588232" width="9.352941176470589" height="9.352941176470589" fill="#101828" style="shape-rendering: crispedges;"/><rect x="173.64705882352942" y="219.41176470588232" width="9.352941176470589" height="9.352941176470589" fill="#101828" style="shape-rendering: crispedges;"/><rect x="192.35294117647058" y="219.41176470588232" width="9.352941176470589" height="9.352941176470589" fill="#101828" style="shape-rendering: crispedges;"/><rect x="201.70588235294116" y="219.41176470588232" width="9.352941176470589" height="9.352941176470589" fill="#101828" style="shape-rendering: crispedges;"/><rect x="211.05882352941174" y="219.41176470588232" width="9.352941176470589" height="9.352941176470589" fill="#101828" style="shape-rendering: crispedges;"/><rect x="248.47058823529406" y="219.41176470588232" width="9.352941176470589" height="9.352941176470589" fill="#101828" style="shape-rendering: crispedges;"/><rect x="257.82352941176464" y="219.41176470588232" width="9.352941176470589" height="9.352941176470589" fill="#101828" style="shape-rendering: crispedges;"/><rect x="267.17647058823525" y="219.41176470588232" width="9.352941176470589" height="9.352941176470589" fill="#101828" style="shape-rendering: crispedges;"/><rect x="285.88235294117646" y="219.41176470588232" width="9.352941176470589" height="9.352941176470589" fill="#101828" style="shape-rendering: crispedges;"/><rect x="52.05882352941176" y="228.7647058823529" width="9.352941176470589" height="9.352941176470589" fill="#101828" style="shape-rendering: crispedges;"/><rect x="61.41176470588235" y="228.7647058823529" width="9.352941176470589" height="9.352941176470589" fill="#101828" style="shape-rendering: crispedges;"/><rect x="80.11764705882354" y="228.7647058823529" width="9.352941176470589" height="9.352941176470589" fill="#101828" style="shape-rendering: crispedges;"/><rect x="89.47058823529413" y="228.7647058823529" width="9.352941176470589" height="9.352941176470589" fill="#101828" style="shape-rendering: crispedges;"/><rect x="98.82352941176472" y="228.7647058823529" width="9.352941176470589" height="9.352941176470589" fill="#101828" style="shape-rendering: crispedges;"/><rect x="117.52941176470591" y="228.7647058823529" width="9.352941176470589" height="9.352941176470589" fill="#101828" style="shape-rendering: crispedges;"/><rect x="136.2352941176471" y="228.7647058823529" width="9.352941176470589" height="9.352941176470589" fill="#101828" style="shape-rendering: crispedges;"/><rect x="145.58823529411768" y="228.7647058823529" width="9.352941176470589" height="9.352941176470589" fill="#101828" style="shape-rendering: crispedges;"/><rect x="154.94117647058826" y="228.7647058823529" width="9.352941176470589" height="9.352941176470589" fill="#101828" style="shape-rendering: crispedges;"/><rect x="164.29411764705884" y="228.7647058823529" width="9.352941176470589" height="9.352941176470589" fill="#101828" style="shape-rendering: crispedges;"/><rect x="173.64705882352942" y="228.7647058823529" width="9.352941176470589" height="9.352941176470589" fill="#101828" style="shape-rendering: crispedges;"/><rect x="192.35294117647058" y="228.7647058823529" width="9.352941176470589" height="9.352941176470589" fill="#101828" style="shape-rendering: crispedges;"/><rect x="201.70588235294116" y="228.7647058823529" width="9.352941176470589" height="9.352941176470589" fill="#101828" style="shape-rendering: crispedges;"/><rect x="229.7647058823529" y="228.7647058823529" width="9.352941176470589" height="9.352941176470589" fill="#101828" style="shape-rendering: crispedges;"/><rect x="239.11764705882348" y="228.7647058823529" width="9.352941176470589" height="9.352941176470589" fill="#101828" style="shape-rendering: crispedges;"/><rect x="248.47058823529406" y="228.7647058823529" width="9.352941176470589" height="9.352941176470589" fill="#101828" style="shape-rendering: crispedges;"/><rect x="257.82352941176464" y="228.7647058823529" width="9.352941176470589" height="9.352941176470589" fill="#101828" style="shape-rendering: crispedges;"/><rect x="267.17647058823525" y="228.7647058823529" width="9.352941176470589" height="9.352941176470589" fill="#101828" style="shape-rendering: crispedges;"/><rect x="276.52941176470586" y="228.7647058823529" width="9.352941176470589" height="9.352941176470589" fill="#101828" style="shape-rendering: crispedges;"/><rect x="285.88235294117646" y="228.7647058823529" width="9.352941176470589" height="9.352941176470589" fill="#101828" style="shape-rendering: crispedges;"/><rect x="117.52941176470591" y="238.11764705882348" width="9.352941176470589" height="9.352941176470589" fill="#101828" style="shape-rendering: crispedges;"/><rect x="145.58823529411768" y="238.11764705882348" width="9.352941176470589" height="9.352941176470589" fill="#101828" style="shape-rendering: crispedges;"/><rect x="154.94117647058826" y="238.11764705882348" width="9.352941176470589" height="9.352941176470589" fill="#101828" style="shape-rendering: crispedges;"/><rect x="192.35294117647058" y="238.11764705882348" width="9.352941176470589" height="9.352941176470589" fill="#101828" style="shape-rendering: crispedges;"/><rect x="201.70588235294116" y="238.11764705882348" width="9.352941176470589" height="9.352941176470589" fill="#101828" style="shape-rendering: crispedges;"/><rect x="211.05882352941174" y="238.11764705882348" width="9.352941176470589" height="9.352941176470589" fill="#101828" style="shape-rendering: crispedges;"/><rect x="229.7647058823529" y="238.11764705882348" width="9.352941176470589" height="9.352941176470589" fill="#101828" style="shape-rendering: crispedges;"/><rect x="267.17647058823525" y="238.11764705882348" width="9.352941176470589" height="9.352941176470589" fill="#101828" style="shape-rendering: crispedges;"/><rect x="276.52941176470586" y="238.11764705882348" width="9.352941176470589" height="9.352941176470589" fill="#101828" style="shape-rendering: crispedges;"/><rect x="285.88235294117646" y="238.11764705882348" width="9.352941176470589" height="9.352941176470589" fill="#101828" style="shape-rendering: crispedges;"/><rect x="295.2352941176471" y="238.11764705882348" width="9.352941176470589" height="9.352941176470589" fill="#101828" style="shape-rendering: crispedges;"/><rect x="304.5882352941177" y="238.11764705882348" width="9.352941176470589" height="9.352941176470589" fill="#101828" style="shape-rendering: crispedges;"/><rect x="42.705882352941174" y="247.47058823529406" width="9.352941176470589" height="9.352941176470589" fill="#101828" style="shape-rendering: crispedges;"/><rect x="52.05882352941176" y="247.47058823529406" width="9.352941176470589" height="9.352941176470589" fill="#101828" style="shape-rendering: crispedges;"/><rect x="61.41176470588235" y="247.47058823529406" width="9.352941176470589" height="9.352941176470589" fill="#101828" style="shape-rendering: crispedges;"/><rect x="70.76470588235294" y="247.47058823529406" width="9.352941176470589" height="9.352941176470589" fill="#101828" style="shape-rendering: crispedges;"/><rect x="80.11764705882354" y="247.47058823529406" width="9.352941176470589" height="9.352941176470589" fill="#101828" style="shape-rendering: crispedges;"/><rect x="89.47058823529413" y="247.47058823529406" width="9.352941176470589" height="9.352941176470589" fill="#101828" style="shape-rendering: crispedges;"/><rect x="98.82352941176472" y="247.47058823529406" width="9.352941176470589" height="9.352941176470589" fill="#101828" style="shape-rendering: crispedges;"/><rect x="117.52941176470591" y="247.47058823529406" width="9.352941176470589" height="9.352941176470589" fill="#101828" style="shape-rendering: crispedges;"/><rect x="173.64705882352942" y="247.47058823529406" width="9.352941176470589" height="9.352941176470589" fill="#101828" style="shape-rendering: crispedges;"/><rect x="201.70588235294116" y="247.47058823529406" width="9.352941176470589" height="9.352941176470589" fill="#101828" style="shape-rendering: crispedges;"/><rect x="211.05882352941174" y="247.47058823529406" width="9.352941176470589" height="9.352941176470589" fill="#101828" style="shape-rendering: crispedges;"/><rect x="220.41176470588232" y="247.47058823529406" width="9.352941176470589" height="9.352941176470589" fill="#101828" style="shape-rendering: crispedges;"/><rect x="229.7647058823529" y="247.47058823529406" width="9.352941176470589" height="9.352941176470589" fill="#101828" style="shape-rendering: crispedges;"/><rect x="248.47058823529406" y="247.47058823529406" width="9.352941176470589" height="9.352941176470589" fill="#101828" style="shape-rendering: crispedges;"/><rect x="267.17647058823525" y="247.47058823529406" width="9.352941176470589" height="9.352941176470589" fill="#101828" style="shape-rendering: crispedges;"/><rect x="276.52941176470586" y="247.47058823529406" width="9.352941176470589" height="9.352941176470589" fill="#101828" style="shape-rendering: crispedges;"/><rect x="295.2352941176471" y="247.47058823529406" width="9.352941176470589" height="9.352941176470589" fill="#101828" style="shape-rendering: crispedges;"/><rect x="42.705882352941174" y="256.82352941176464" width="9.352941176470589" height="9.352941176470589" fill="#101828" style="shape-rendering: crispedges;"/><rect x="98.82352941176472" y="256.82352941176464" width="9.352941176470589" height="9.352941176470589" fill="#101828" style="shape-rendering: crispedges;"/><rect x="117.52941176470591" y="256.82352941176464" width="9.352941176470589" height="9.352941176470589" fill="#101828" style="shape-rendering: crispedges;"/><rect x="145.58823529411768" y="256.82352941176464" width="9.352941176470589" height="9.352941176470589" fill="#101828" style="shape-rendering: crispedges;"/><rect x="164.29411764705884" y="256.82352941176464" width="9.352941176470589" height="9.352941176470589" fill="#101828" style="shape-rendering: crispedges;"/><rect x="173.64705882352942" y="256.82352941176464" width="9.352941176470589" height="9.352941176470589" fill="#101828" style="shape-rendering: crispedges;"/><rect x="183" y="256.82352941176464" width="9.352941176470589" height="9.352941176470589" fill="#101828" style="shape-rendering: crispedges;"/><rect x="192.35294117647058" y="256.82352941176464" width="9.352941176470589" height="9.352941176470589" fill="#101828" style="shape-rendering: crispedges;"/><rect x="211.05882352941174" y="256.82352941176464" width="9.352941176470589" height="9.352941176470589" fill="#101828" style="shape-rendering: crispedges;"/><rect x="229.7647058823529" y="256.82352941176464" width="9.352941176470589" height="9.352941176470589" fill="#101828" style="shape-rendering: crispedges;"/><rect x="267.17647058823525" y="256.82352941176464" width="9.352941176470589" height="9.352941176470589" fill="#101828" style="shape-rendering: crispedges;"/><rect x="276.52941176470586" y="256.82352941176464" width="9.352941176470589" height="9.352941176470589" fill="#101828" style="shape-rendering: crispedges;"/><rect x="304.5882352941177" y="256.82352941176464" width="9.352941176470589" height="9.352941176470589" fill="#101828" style="shape-rendering: crispedges;"/><rect x="42.705882352941174" y="266.17647058823525" width="9.352941176470589" height="9.352941176470589" fill="#101828" style="shape-rendering: crispedges;"/><rect x="61.41176470588235" y="266.17647058823525" width="9.352941176470589" height="9.352941176470589" fill="#101828" style="shape-rendering: crispedges;"/><rect x="70.76470588235294" y="266.17647058823525" width="9.352941176470589" height="9.352941176470589" fill="#101828" style="shape-rendering: crispedges;"/><rect x="80.11764705882354" y="266.17647058823525" width="9.352941176470589" height="9.352941176470589" fill="#101828" style="shape-rendering: crispedges;"/><rect x="98.82352941176472" y="266.17647058823525" width="9.352941176470589" height="9.352941176470589" fill="#101828" style="shape-rendering: crispedges;"/><rect x="136.2352941176471" y="266.17647058823525" width="9.352941176470589" height="9.352941176470589" fill="#101828" style="shape-rendering: crispedges;"/><rect x="183" y="266.17647058823525" width="9.352941176470589" height="9.352941176470589" fill="#101828" style="shape-rendering: crispedges;"/><rect x="192.35294117647058" y="266.17647058823525" width="9.352941176470589" height="9.352941176470589" fill="#101828" style="shape-rendering: crispedges;"/><rect x="201.70588235294116" y="266.17647058823525" width="9.352941176470589" height="9.352941176470589" fill="#101828" style="shape-rendering: crispedges;"/><rect x="229.7647058823529" y="266.17647058823525" width="9.352941176470589" height="9.352941176470589" fill="#101828" style="shape-rendering: crispedges;"/><rect x="239.11764705882348" y="266.17647058823525" width="9.352941176470589" height="9.352941176470589" fill="#101828" style="shape-rendering: crispedges;"/><rect x="248.47058823529406" y="266.17647058823525" width="9.352941176470589" height="9.352941176470589" fill="#101828" style="shape-rendering: crispedges;"/><rect x="257.82352941176464" y="266.17647058823525" width="9.352941176470589" height="9.352941176470589" fill="#101828" style="shape-rendering: crispedges;"/><rect x="267.17647058823525" y="266.17647058823525" width="9.352941176470589" height="9.352941176470589" fill="#101828" style="shape-rendering: crispedges;"/><rect x="285.88235294117646" y="266.17647058823525" width="9.352941176470589" height="9.352941176470589" fill="#101828" style="shape-rendering: crispedges;"/><rect x="295.2352941176471" y="266.17647058823525" width="9.352941176470589" height="9.352941176470589" fill="#101828" style="shape-rendering: crispedges;"/><rect x="42.705882352941174" y="275.52941176470586" width="9.352941176470589" height="9.352941176470589" fill="#101828" style="shape-rendering: crispedges;"/><rect x="61.41176470588235" y="275.52941176470586" width="9.352941176470589" height="9.352941176470589" fill="#101828" style="shape-rendering: crispedges;"/><rect x="70.76470588235294" y="275.52941176470586" width="9.352941176470589" height="9.352941176470589" fill="#101828" style="shape-rendering: crispedges;"/><rect x="80.11764705882354" y="275.52941176470586" width="9.352941176470589" height="9.352941176470589" fill="#101828" style="shape-rendering: crispedges;"/><rect x="98.82352941176472" y="275.52941176470586" width="9.352941176470589" height="9.352941176470589" fill="#101828" style="shape-rendering: crispedges;"/><rect x="117.52941176470591" y="275.52941176470586" width="9.352941176470589" height="9.352941176470589" fill="#101828" style="shape-rendering: crispedges;"/><rect x="126.8823529411765" y="275.52941176470586" width="9.352941176470589" height="9.352941176470589" fill="#101828" style="shape-rendering: crispedges;"/><rect x="136.2352941176471" y="275.52941176470586" width="9.352941176470589" height="9.352941176470589" fill="#101828" style="shape-rendering: crispedges;"/><rect x="164.29411764705884" y="275.52941176470586" width="9.352941176470589" height="9.352941176470589" fill="#101828" style="shape-rendering: crispedges;"/><rect x="183" y="275.52941176470586" width="9.352941176470589" height="9.352941176470589" fill="#101828" style="shape-rendering: crispedges;"/><rect x="192.35294117647058" y="275.52941176470586" width="9.352941176470589" height="9.352941176470589" fill="#101828" style="shape-rendering: crispedges;"/><rect x="201.70588235294116" y="275.52941176470586" width="9.352941176470589" height="9.352941176470589" fill="#101828" style="shape-rendering: crispedges;"/><rect x="220.41176470588232" y="275.52941176470586" width="9.352941176470589" height="9.352941176470589" fill="#101828" style="shape-rendering: crispedges;"/><rect x="239.11764705882348" y="275.52941176470586" width="9.352941176470589" height="9.352941176470589" fill="#101828" style="shape-rendering: crispedges;"/><rect x="257.82352941176464" y="275.52941176470586" width="9.352941176470589" height="9.352941176470589" fill="#101828" style="shape-rendering: crispedges;"/><rect x="267.17647058823525" y="275.52941176470586" width="9.352941176470589" height="9.352941176470589" fill="#101828" style="shape-rendering: crispedges;"/><rect x="276.52941176470586" y="275.52941176470586" width="9.352941176470589" height="9.352941176470589" fill="#101828" style="shape-rendering: crispedges;"/><rect x="304.5882352941177" y="275.52941176470586" width="9.352941176470589" height="9.352941176470589" fill="#101828" style="shape-rendering: crispedges;"/><rect x="42.705882352941174" y="284.88235294117646" width="9.352941176470589" height="9.352941176470589" fill="#101828" style="shape-rendering: crispedges;"/><rect x="61.41176470588235" y="284.88235294117646" width="9.352941176470589" height="9.352941176470589" fill="#101828" style="shape-rendering: crispedges;"/><rect x="70.76470588235294" y="284.88235294117646" width="9.352941176470589" height="9.352941176470589" fill="#101828" style="shape-rendering: crispedges;"/><rect x="80.11764705882354" y="284.88235294117646" width="9.352941176470589" height="9.352941176470589" fill="#101828" style="shape-rendering: crispedges;"/><rect x="98.82352941176472" y="284.88235294117646" width="9.352941176470589" height="9.352941176470589" fill="#101828" style="shape-rendering: crispedges;"/><rect x="117.52941176470591" y="284.88235294117646" width="9.352941176470589" height="9.352941176470589" fill="#101828" style="shape-rendering: crispedges;"/><rect x="154.94117647058826" y="284.88235294117646" width="9.352941176470589" height="9.352941176470589" fill="#101828" style="shape-rendering: crispedges;"/><rect x="164.29411764705884" y="284.88235294117646" width="9.352941176470589" height="9.352941176470589" fill="#101828" style="shape-rendering: crispedges;"/><rect x="201.70588235294116" y="284.88235294117646" width="9.352941176470589" height="9.352941176470589" fill="#101828" style="shape-rendering: crispedges;"/><rect x="229.7647058823529" y="284.88235294117646" width="9.352941176470589" height="9.352941176470589" fill="#101828" style="shape-rendering: crispedges;"/><rect x="257.82352941176464" y="284.88235294117646" width="9.352941176470589" height="9.352941176470589" fill="#101828" style="shape-rendering: crispedges;"/><rect x="285.88235294117646" y="284.88235294117646" width="9.352941176470589" height="9.352941176470589" fill="#101828" style="shape-rendering: crispedges;"/><rect x="304.5882352941177" y="284.88235294117646" width="9.352941176470589" height="9.352941176470589" fill="#101828" style="shape-rendering: crispedges;"/><rect x="42.705882352941174" y="294.2352941176471" width="9.352941176470589" height="9.352941176470589" fill="#101828" style="shape-rendering: crispedges;"/><rect x="98.82352941176472" y="294.2352941176471" width="9.352941176470589" height="9.352941176470589" fill="#101828" style="shape-rendering: crispedges;"/><rect x="126.8823529411765" y="294.2352941176471" width="9.352941176470589" height="9.352941176470589" fill="#101828" style="shape-rendering: crispedges;"/><rect x="136.2352941176471" y="294.2352941176471" width="9.352941176470589" height="9.352941176470589" fill="#101828" style="shape-rendering: crispedges;"/><rect x="145.58823529411768" y="294.2352941176471" width="9.352941176470589" height="9.352941176470589" fill="#101828" style="shape-rendering: crispedges;"/><rect x="173.64705882352942" y="294.2352941176471" width="9.352941176470589" height="9.352941176470589" fill="#101828" style="shape-rendering: crispedges;"/><rect x="192.35294117647058" y="294.2352941176471" width="9.352941176470589" height="9.352941176470589" fill="#101828" style="shape-rendering: crispedges;"/><rect x="229.7647058823529" y="294.2352941176471" width="9.352941176470589" height="9.352941176470589" fill="#101828" style="shape-rendering: crispedges;"/><rect x="239.11764705882348" y="294.2352941176471" width="9.352941176470589" height="9.352941176470589" fill="#101828" style="shape-rendering: crispedges;"/><rect x="257.82352941176464" y="294.2352941176471" width="9.352941176470589" height="9.352941176470589" fill="#101828" style="shape-rendering: crispedges;"/><rect x="276.52941176470586" y="294.2352941176471" width="9.352941176470589" height="9.352941176470589" fill="#101828" style="shape-rendering: crispedges;"/><rect x="295.2352941176471" y="294.2352941176471" width="9.352941176470589" height="9.352941176470589" fill="#101828" style="shape-rendering: crispedges;"/><rect x="42.705882352941174" y="303.5882352941177" width="9.352941176470589" height="9.352941176470589" fill="#101828" style="shape-rendering: crispedges;"/><rect x="52.05882352941176" y="303.5882352941177" width="9.352941176470589" height="9.352941176470589" fill="#101828" style="shape-rendering: crispedges;"/><rect x="61.41176470588235" y="303.5882352941177" width="9.352941176470589" height="9.352941176470589" fill="#101828" style="shape-rendering: crispedges;"/><rect x="70.76470588235294" y="303.5882352941177" width="9.352941176470589" height="9.352941176470589" fill="#101828" style="shape-rendering: crispedges;"/><rect x="80.11764705882354" y="303.5882352941177" width="9.352941176470589" height="9.352941176470589" fill="#101828" style="shape-rendering: crispedges;"/><rect x="89.47058823529413" y="303.5882352941177" width="9.352941176470589" height="9.352941176470589" fill="#101828" style="shape-rendering: crispedges;"/><rect x="98.82352941176472" y="303.5882352941177" width="9.352941176470589" height="9.352941176470589" fill="#101828" style="shape-rendering: crispedges;"/><rect x="117.52941176470591" y="303.5882352941177" width="9.352941176470589" height="9.352941176470589" fill="#101828" style="shape-rendering: crispedges;"/><rect x="126.8823529411765" y="303.5882352941177" width="9.352941176470589" height="9.352941176470589" fill="#101828" style="shape-rendering: crispedges;"/><rect x="136.2352941176471" y="303.5882352941177" width="9.352941176470589" height="9.352941176470589" fill="#101828" style="shape-rendering: crispedges;"/><rect x="164.29411764705884" y="303.5882352941177" width="9.352941176470589" height="9.352941176470589" fill="#101828" style="shape-rendering: crispedges;"/><rect x="183" y="303.5882352941177" width="9.352941176470589" height="9.352941176470589" fill="#101828" style="shape-rendering: crispedges;"/><rect x="211.05882352941174" y="303.5882352941177" width="9.352941176470589" height="9.352941176470589" fill="#101828" style="shape-rendering: crispedges;"/><rect x="220.41176470588232" y="303.5882352941177" width="9.352941176470589" height="9.352941176470589" fill="#101828" style="shape-rendering: crispedges;"/><rect x="229.7647058823529" y="303.5882352941177" width="9.352941176470589" height="9.352941176470589" fill="#101828" style="shape-rendering: crispedges;"/><rect x="239.11764705882348" y="303.5882352941177" width="9.352941176470589" height="9.352941176470589" fill="#101828" style="shape-rendering: crispedges;"/><rect x="248.47058823529406" y="303.5882352941177" width="9.352941176470589" height="9.352941176470589" fill="#101828" style="shape-rendering: crispedges;"/><rect x="295.2352941176471" y="303.5882352941177" width="9.352941176470589" height="9.352941176470589" fill="#101828" style="shape-rendering: crispedges;"/></svg>